Coordinates
version=1
nRows=23
nColumns=23
inDegrees=yes

Units are S.I. units (second, meters, Newtons, ...)
If the header above contains a line with 'inDegrees', this indicates whether rotational values are in degrees (yes) or radians (no).

endheader
time	pelvis_tilt	pelvis_list	pelvis_rotation	pelvis_tx	pelvis_ty	pelvis_tz	hip_flexion_r	hip_adduction_r	hip_rotation_r	knee_angle_r	knee_angle_r_beta	ankle_angle_r	subtalar_angle_r	mtp_angle_r	hip_flexion_l	hip_adduction_l	hip_rotation_l	knee_angle_l	knee_angle_l_beta	ankle_angle_l	subtalar_angle_l	mtp_angle_l
     22.50000000	      1.81565429	      3.07494892	      6.54830355	      2.10205943	      1.00411905	      1.03581953	     34.67446264	     -4.56726230	     -3.36682433	    110.80985257	      1.93399677	     -3.25277866	     -9.87316580	      0.00000000	     -2.54437863	      0.52001266	     -9.48246269	     39.34427057	      0.68668706	     25.49822987	     16.90370049	      0.00000000
     22.50666667	      1.70229203	      2.49850759	      5.57689092	      2.10345413	      1.00903148	      1.03610864	     35.99465460	     -3.68162556	     -3.04712625	    108.49068476	      1.89351966	     -2.69109150	    -10.00059923	      0.00000000	     -4.98881126	      0.14670603	    -10.28857662	     36.80104672	      0.64229943	     23.12501712	     16.79281954	      0.00000000
     22.51333333	      1.34908486	      1.85819605	      4.64306558	      2.10503350	      1.01389400	      1.03631160	     37.41002019	     -2.74238214	     -2.85429435	    105.96645005	      1.84946345	     -2.14399742	    -10.19975182	      0.00000000	     -7.10456942	     -0.16940604	    -11.04150834	     34.28554341	      0.59839562	     20.28068521	     16.63328326	      0.00000000
     22.52000000	      1.94281690	      1.50078895	      3.65874603	      2.10712957	      1.02036263	      1.03618125	     37.47784264	     -2.09570829	     -2.62876790	    103.15955932	      1.80047397	     -1.69186216	    -10.57089242	      0.00000000	    -10.60744613	      0.26601156	    -10.80584921	     30.80809697	      0.53770273	     16.60340077	     14.37405327	      0.00000000
     22.52666667	      1.81469754	      0.93264565	      2.62292900	      2.10928549	      1.02571316	      1.03635886	     38.28344233	     -1.13144786	     -2.43545566	    100.25311776	      1.74974699	     -1.37266964	    -11.18294236	      0.00000000	    -13.00762705	      0.25566271	    -11.62550217	     27.98927690	      0.48850504	     12.77913590	     13.58247003	      0.00000000
     22.53333333	      1.35785025	      0.32563090	      1.67821377	      2.11142806	      1.03058538	      1.03648676	     39.31713244	     -0.21987016	     -2.42288856	     97.21898810	      1.69679144	     -1.03973966	    -11.63096432	      0.00000000	    -14.79954846	      0.14535832	    -12.72420702	     25.57022911	      0.44628469	      8.43014331	     12.90910254	      0.00000000
     22.54000000	      1.52544131	     -0.14690716	      0.83795460	      2.11388970	      1.03651209	      1.03629793	     39.40077020	      0.47103576	     -2.47718776	     93.92544246	      1.63930822	     -0.78654258	    -12.21773487	      0.00000000	    -17.51067527	      0.68449000	    -12.09845901	     22.35653801	      0.39019520	      3.65402542	      9.79320837	      0.00000000
     22.54666667	      1.20165804	     -0.64380620	      0.01683869	      2.11621283	      1.04142178	      1.03618667	     39.95206083	      1.18577733	     -2.58335887	     90.56374082	      1.58063546	     -0.63922903	    -12.82946027	      0.00000000	    -19.20995109	      0.82096520	    -12.77979727	     20.15892056	      0.35183954	     -0.94368995	      8.40082472	      0.00000000
     22.55333333	      0.83362147	     -1.11857722	     -0.69900069	      2.11847172	      1.04605859	      1.03592549	     40.41377684	      1.79556071	     -2.80525526	     87.07008213	      1.51965961	     -0.56021451	    -13.39345930	      0.00000000	    -20.55674138	      0.87552217	    -13.64979458	     18.51029922	      0.32306567	     -5.34328053	      7.25865908	      0.00000000
     22.56000000	      0.36296629	     -1.45514716	     -1.36890409	      2.12065365	      1.05042994	      1.03564055	     40.86097530	      2.22853328	     -3.04376774	     83.45083315	      1.45649180	     -0.48745959	    -13.81624236	      0.00000000	    -21.55107153	      1.03705637	    -14.42825743	     17.27068378	      0.30143030	     -9.55754782	      5.96180410	      0.00000000
     22.56666667	     -0.23234664	     -1.66844144	     -1.97135828	      2.12269953	      1.05437797	      1.03527999	     41.33858610	      2.50391570	     -3.31113139	     79.74207855	      1.39176182	     -0.35416097	    -13.94653955	      0.00000000	    -22.12591134	      1.27843547	    -14.95659004	     16.54346633	      0.28873796	    -13.41972327	      4.48937051	      0.00000000
     22.57333333	     -0.79127590	     -1.77651825	     -2.46370708	      2.12462320	      1.05800602	      1.03478279	     41.65955941	      2.56057725	     -3.71357844	     75.94136473	      1.32542685	     -0.30155389	    -13.99653403	      0.00000000	    -22.42596604	      1.46837598	    -15.58709289	     16.44640903	      0.28704399	    -16.66512482	      3.50541444	      0.00000000
     22.58000000	     -1.56451823	     -1.78114587	     -2.90991572	      2.12640458	      1.06101678	      1.03436069	     42.12537184	      2.50058297	     -4.18594676	     72.08070332	      1.25804560	     -0.11252584	    -13.54670315	      0.00000000	    -22.19044963	      1.62932126	    -16.19760486	     16.97957120	      0.29634942	    -19.32504704	      2.97242540	      0.00000000
     22.58666667	     -2.00582480	     -1.79308847	     -3.30222610	      2.12801560	      1.06413713	      1.03406605	     42.08896086	      2.45529443	     -4.73079366	     68.07361260	      1.18810867	     -0.00978602	    -13.08526598	      0.00000000	    -22.25237487	      1.92233729	    -15.84816393	     17.57029892	      0.30665957	    -21.67047309	      1.46952819	      0.00000000
     22.59333333	     -2.62273450	     -1.74117693	     -3.64466451	      2.12946715	      1.06654752	      1.03390040	     42.16530763	      2.32139269	     -5.41283121	     64.05197470	      1.11791785	      0.15883182	    -12.20191760	      0.00000000	    -21.83283756	      2.10301279	    -15.66631239	     18.82528931	      0.32856328	    -23.23985855	      1.00468292	      0.00000000
     22.60000000	     -3.17870910	     -1.65993566	     -3.94139345	      2.13079338	      1.06862288	      1.03389262	     42.07537550	      2.18086246	     -6.16548945	     59.98983144	      1.04702008	      0.29547994	    -11.06646613	      0.00000000	    -21.36334890	      2.33660074	    -15.04310585	     20.30843783	      0.35444911	    -24.30436529	      0.71038842	      0.00000000
     22.60666667	     -3.54336322	     -1.57679988	     -4.12590165	      2.13195862	      1.07041060	      1.03392288	     41.70899144	      1.92751845	     -7.19214554	     56.00111710	      0.97740388	      0.66007873	     -9.24264274	      0.00000000	    -20.93913306	      2.54984480	    -14.10441837	     22.14212893	      0.38645305	    -24.74956747	      0.68060450	      0.00000000
     22.61333333	     -3.93118981	     -1.48415446	     -4.33630826	      2.13297052	      1.07174835	      1.03423961	     41.30120829	      1.81231152	     -8.12843906	     52.04687780	      0.90838938	      0.83473483	     -7.46812778	      0.00000000	    -20.38632931	      2.81793448	    -12.95278734	     24.18439797	      0.42209737	    -24.79722322	      0.83140355	      0.00000000
     22.62000000	     -4.23453870	     -1.35457108	     -4.55029587	      2.13379687	      1.07269339	      1.03469770	     40.77472670	      1.75665321	     -8.97282508	     48.22459838	      0.84167802	      0.93067960	     -5.55314116	      0.00000000	    -19.80682932	      3.16657892	    -11.66626787	     26.45509992	      0.46172860	    -24.41846513	      1.03636368	      0.00000000
     22.62666667	     -4.35777207	     -1.24993878	     -4.69157128	      2.13450340	      1.07322969	      1.03515624	     40.07707233	      1.60587494	    -10.10822941	     44.74738243	      0.78098916	      1.42757663	     -2.67252545	      0.00000000	    -19.25719319	      3.38993449	    -10.68539983	     29.09043982	      0.50772396	    -23.69859989	      1.91123142	      0.00000000
     22.63333333	     -4.42560955	     -1.12516209	     -4.91475856	      2.13495972	      1.07334347	      1.03581458	     39.34714810	      1.64667529	    -10.85999511	     41.51570564	      0.72458575	      1.71160726	     -0.09328200	      0.00000000	    -18.64709551	      3.68771191	     -9.76973699	     31.93113752	      0.55730348	    -22.75998728	      2.52271306	      0.00000000
     22.64000000	     -4.47968897	     -0.99571831	     -5.14354231	      2.13512105	      1.07304612	      1.03650272	     38.63061614	      1.82852403	    -11.22411542	     38.55701342	      0.67294683	      1.85694620	      2.01500573	      0.00000000	    -17.90430816	      4.00889845	     -8.91040504	     35.00092896	      0.61088145	    -21.82871123	      2.66503879	      0.00000000
     22.64666667	     -4.40775540	     -0.90087862	     -5.44270027	      2.13509349	      1.07232930	      1.03724354	     37.84883502	      2.11684015	    -11.31523512	     36.02234091	      0.62870845	      2.02922337	      4.15856773	      0.00000000	    -17.15552956	      4.27846889	     -8.38020848	     38.32521493	      0.66890119	    -20.84488037	      2.69517383	      0.00000000
